# xmcd CD database file
#
# Track frame offsets:
#	150
#	14482
#	30667
#	44030
#	70802
#	85012
#	98340
#	117915
#	130965
#	142770
#	164450
#	187397
#	201030
#	215895
#	227427
#	241505
#	260195
#	277050
#
# Disc length: 3971 seconds
#
# Revision: 0
# Processed by: cddbd v1.4PL0 Copyright (c) Steve Scherf et al.
# Submitted via: CDex 1.50
#
DISCID=060f8112
DTITLE=Various Artist - Hortons's Briefcase
DYEAR=2000
DGENRE=Blues
TTITLE0=Little blue boy
TTITLE1=Southern women
TTITLE2=Hard hearted woman
TTITLE3=Louise, Louise
TTITLE4=I'm in the mood
TTITLE5=Easy
TTITLE6=Everybody's fishin'
TTITLE7=If it ain't me
TTITLE8=La Cueuracha
TTITLE9=Have a good time
TTITLE10=Card game
TTITLE11=Cotton patch hot foot
TTITLE12=West winds are blowing
TTITLE13=Fumblin' around
TTITLE14=We all got to go, sometime
TTITLE15=Honey dripper
TTITLE16=Sneakin' and hidin'
TTITLE17=Back home to mama
EXTD=YEAR: 2000
EXTT0=
EXTT1=
EXTT2=
EXTT3=
EXTT4=
EXTT5=
EXTT6=
EXTT7=
EXTT8=
EXTT9=
EXTT10=
EXTT11=
EXTT12=
EXTT13=
EXTT14=
EXTT15=
EXTT16=
EXTT17=
PLAYORDER=
